<?xml version="1.0" standalone="no"?>
<!DOCTYPE svg PUBLIC "-//W3C//DTD SVG 20010904//EN"
 "http://www.w3.org/TR/2001/REC-SVG-20010904/DTD/svg10.dtd">
<svg version="1.0" xmlns="http://www.w3.org/2000/svg"
 width="187.000000pt" height="234.000000pt" viewBox="0 0 187.000000 234.000000"
 preserveAspectRatio="xMidYMid meet">
<metadata>
Created by potrace 1.16, written by Peter Selinger 2001-2019
</metadata>
<g transform="translate(0.000000,234.000000) scale(0.100000,-0.100000)"
fill="#000000" stroke="none">
<path d="M0 1170 l0 -1170 99 0 c63 0 102 4 107 11 4 7 26 9 63 5 152 -17 170
-18 217 -4 41 12 54 12 79 2 32 -14 145 -19 145 -6 0 4 -13 21 -28 39 -48 55
-57 67 -82 108 -13 22 -34 53 -47 68 -32 40 -31 102 3 153 35 52 44 56 72 33
14 -10 31 -19 38 -19 8 0 49 -34 91 -75 46 -44 84 -73 93 -71 46 13 80 17 80
9 0 -16 88 -12 94 4 3 8 10 12 15 9 5 -3 7 2 4 13 -3 10 1 22 8 27 9 5 11 2 6
-9 -3 -10 -2 -17 3 -17 6 0 10 4 10 9 0 20 94 111 136 131 37 18 50 20 70 12
13 -7 31 -9 39 -6 8 4 15 1 15 -5 0 -19 -60 -141 -69 -141 -4 0 -33 -21 -64
-47 -31 -27 -75 -61 -96 -78 -22 -16 -72 -58 -111 -92 l-71 -63 476 0 475 0 0
1170 0 1170 -605 0 c-397 0 -605 -3 -605 -10 0 -5 -7 -10 -15 -10 -8 0 -12 -6
-9 -13 3 -8 -6 -19 -22 -26 l-26 -12 20 36 21 35 -314 0 -315 0 0 -1170z m50
1137 c0 -2 -10 -12 -22 -23 l-23 -19 19 23 c18 21 26 27 26 19z m650 -17 c0
-5 -4 -10 -10 -10 -5 0 -10 5 -10 10 0 6 5 10 10 10 6 0 10 -4 10 -10z m-370
-35 c0 -8 -2 -15 -4 -15 -2 0 -6 7 -10 15 -3 8 -1 15 4 15 6 0 10 -7 10 -15z
m800 11 c0 -3 -4 -8 -10 -11 -5 -3 -10 -1 -10 4 0 6 5 11 10 11 6 0 10 -2 10
-4z m-600 -11 c0 -2 -10 -10 -22 -16 -21 -11 -22 -11 -9 4 13 16 31 23 31 12z
m-450 -41 c0 -8 -4 -12 -10 -9 -5 3 -10 10 -10 16 0 5 5 9 10 9 6 0 10 -7 10
-16z m-4 -70 c-4 -9 -9 -15 -11 -12 -3 3 -3 13 1 22 4 9 9 15 11 12 3 -3 3
-13 -1 -22z m131 -26 c-3 -8 -6 -5 -6 6 -1 11 2 17 5 13 3 -3 4 -12 1 -19z
m73 -122 c0 -3 -4 -8 -10 -11 -5 -3 -10 -1 -10 4 0 6 5 11 10 11 6 0 10 -2 10
-4z m201 -60 c-11 -27 -24 -37 -16 -11 3 8 7 22 10 31 3 9 8 15 11 12 2 -3 0
-17 -5 -32z m-411 -80 c0 -3 -4 -8 -10 -11 -5 -3 -10 -1 -10 4 0 6 5 11 10 11
6 0 10 -2 10 -4z m-33 -48 c-3 -7 -5 -2 -5 12 0 14 2 19 5 13 2 -7 2 -19 0
-25z m403 -19 c6 -34 5 -39 -5 -27 -13 12 -19 37 -16 67 2 25 13 3 21 -40z
m-20 -69 c0 -5 -2 -10 -4 -10 -3 0 -8 5 -11 10 -3 6 -1 10 4 10 6 0 11 -4 11
-10z m454 -39 c9 -14 -17 -39 -48 -47 -23 -6 -27 -4 -21 7 24 43 56 61 69 40z
m39 -47 c-24 -18 -43 -18 -43 0 0 8 10 16 23 18 32 6 41 -2 20 -18z m206 -27
c21 -17 81 -114 81 -130 0 -8 9 -22 20 -32 24 -22 80 -108 80 -123 0 -6 -16
-16 -35 -22 -19 -6 -35 -16 -35 -22 0 -7 -5 -7 -14 1 -7 6 -53 12 -105 13 -50
0 -91 5 -91 10 0 4 7 8 16 8 11 0 14 6 9 22 -7 21 -6 21 76 15 75 -5 82 -4 64
9 -28 21 -183 13 -200 -10 -7 -9 -17 -16 -22 -16 -20 0 -53 -38 -47 -53 3 -8
1 -24 -5 -34 -6 -12 -6 -25 0 -34 7 -12 9 -11 9 2 0 12 8 16 33 15 17 -1 44 1
59 5 15 4 30 3 33 -2 3 -5 22 -7 41 -4 46 6 44 -12 -2 -21 -28 -5 -33 -9 -21
-15 24 -14 79 1 85 23 2 10 15 21 28 24 13 3 24 10 24 16 0 5 4 7 9 4 5 -4 22
1 38 11 41 23 64 12 57 -27 -4 -19 -2 -30 5 -30 6 0 11 -16 11 -38 0 -37 -15
-67 -52 -104 -10 -10 -18 -24 -18 -31 0 -6 -20 -33 -44 -59 -35 -37 -42 -52
-38 -73 3 -17 -5 -48 -21 -84 -14 -31 -28 -69 -32 -84 -9 -42 -70 -93 -145
-122 -83 -32 -128 -32 -191 1 -61 30 -93 63 -121 124 -11 24 -26 50 -33 57 -7
6 -16 29 -19 50 -4 21 -25 72 -46 114 -38 74 -39 77 -35 170 1 52 6 104 10
117 l8 23 11 -23 c6 -12 22 -28 35 -34 13 -7 27 -17 31 -24 8 -13 90 -21 90
-9 0 5 -9 9 -20 9 -11 0 -20 4 -20 9 0 10 89 26 97 17 3 -3 14 -1 24 5 16 8
19 6 19 -11 0 -11 -3 -19 -7 -19 -20 3 -23 -3 -12 -23 11 -20 12 -20 22 -3 5
10 12 32 13 47 2 16 8 37 14 48 14 26 13 40 -3 34 -7 -2 -33 9 -58 26 -38 26
-53 30 -114 30 -48 0 -78 -5 -93 -16 -33 -23 -29 4 8 52 17 21 43 59 60 83 41
61 63 74 108 66 34 -5 40 -3 49 18 9 20 23 27 70 34 32 6 74 8 94 6 28 -4 40
0 50 14 8 11 21 22 29 25 17 6 57 -7 79 -25z m-369 -287 c0 -5 -4 -10 -10 -10
-5 0 -10 5 -10 10 0 6 5 10 10 10 6 0 10 -4 10 -10z m-53 -24 c18 -16 -1 -44
-19 -29 -7 7 -31 13 -53 15 -47 4 -53 20 -10 29 34 7 65 2 82 -15z m766 -6
c-3 -12 -8 -19 -11 -16 -5 6 5 36 12 36 2 0 2 -9 -1 -20z m-58 -10 c-10 -11
-20 -18 -23 -15 -7 6 18 35 31 35 5 0 2 -9 -8 -20z m125 -22 c0 -6 -7 -5 -15
2 -8 7 -15 17 -15 22 0 6 7 5 15 -2 8 -7 15 -17 15 -22z m81 8 l34 -15 -32 1
c-18 1 -34 7 -37 15 -7 16 -6 16 35 -1z m-154 -118 c-3 -40 -15 -98 -25 -128
-34 -95 -31 -91 -55 -78 -30 15 -38 30 -25 45 5 7 11 42 11 79 2 60 4 68 25
75 20 8 23 14 17 39 -7 31 2 39 23 18 9 -9 12 -8 12 5 0 9 5 17 11 17 8 0 10
-22 6 -72z m-986 8 c1 9 28 -94 29 -108 0 -5 -8 -8 -17 -8 -13 0 -14 -3 -5
-12 7 -7 12 -25 12 -40 0 -15 5 -28 10 -28 6 0 10 -9 10 -20 0 -37 -17 -20
-33 33 -16 52 -37 157 -37 185 0 12 3 12 15 2 8 -7 15 -9 16 -4z m1234 -851
l30 -14 -30 6 c-16 3 -37 9 -45 14 -27 15 11 10 45 -6z"/>
<path d="M1215 1310 c-3 -5 1 -10 10 -10 9 0 13 5 10 10 -3 6 -8 10 -10 10 -2
0 -7 -4 -10 -10z"/>
<path d="M925 1191 c-3 -5 -1 -12 5 -16 5 -3 10 1 10 9 0 18 -6 21 -15 7z"/>
<path d="M1263 1179 c-11 -11 -6 -49 7 -49 4 0 10 14 12 30 5 32 -1 37 -19 19z"/>
<path d="M777 1023 c-22 -12 -27 -21 -25 -41 2 -21 9 -28 31 -30 15 -2 33 -12
40 -23 16 -25 59 -25 82 1 10 11 28 20 41 20 27 0 54 25 54 49 0 13 -8 18 -30
19 -16 0 -37 5 -47 10 -12 7 -24 4 -45 -11 l-28 -21 -22 21 c-21 18 -26 18
-51 6z"/>
<path d="M1028 1033 c7 -3 16 -2 19 1 4 3 -2 6 -13 5 -11 0 -14 -3 -6 -6z"/>
<path d="M682 917 c-25 -30 44 -103 78 -82 17 10 189 15 214 6 26 -10 96 22
96 44 0 17 -36 21 -42 5 -4 -13 -298 -22 -298 -9 0 6 -8 19 -19 30 -15 16 -20
17 -29 6z"/>
<path d="M760 784 c1 -18 51 -45 87 -48 34 -3 103 19 103 34 0 3 -30 5 -67 5
-38 0 -80 4 -95 9 -16 4 -28 4 -28 0z"/>
<path d="M1415 1079 c-4 -6 -5 -12 -2 -15 2 -3 7 2 10 11 7 17 1 20 -8 4z"/>
</g>
</svg>
